<?xml version="1.0" encoding="utf-8"?>
<!-- Generator: Adobe Illustrator 19.0.0, SVG Export Plug-In . SVG Version: 6.00 Build 0)  -->
<svg version="1.1" id="Layer_1" xmlns="http://www.w3.org/2000/svg" xmlns:xlink="http://www.w3.org/1999/xlink" x="0px" y="0px"
	 viewBox="0 0 566.9 566.9" style="enable-background:new 0 0 566.9 566.9;" xml:space="preserve">
<style type="text/css">
	.st0{fill:url(#XMLID_3_);stroke:#333333;stroke-width:6;stroke-miterlimit:10;}
	.st1{fill:#333333;}
	.st2{fill:#EDE8E8;}
	.st3{opacity:0.89;}
	.st4{opacity:0.15;}
	.st5{fill:#6B6B6B;}
	.st6{fill:url(#XMLID_4_);stroke:#333333;stroke-width:6;stroke-miterlimit:10;}
	.st7{fill:url(#XMLID_5_);stroke:#333333;stroke-width:6;stroke-miterlimit:10;}
	.st8{fill:url(#XMLID_6_);stroke:#333333;stroke-width:6;stroke-miterlimit:10;}
	.st9{opacity:0.2;fill:#333333;}
</style>
<linearGradient id="XMLID_3_" gradientUnits="userSpaceOnUse" x1="59.191" y1="199.8534" x2="457.8445" y2="199.8534">
	<stop  offset="0" style="stop-color:#27C42F"/>
	<stop  offset="0.5884" style="stop-color:#21CB2A"/>
	<stop  offset="1" style="stop-color:#1AD323"/>
</linearGradient>
<polygon id="XMLID_269_" class="st0" points="67.1,328.1 330.5,19.9 457.8,119.2 59.2,379.8 "/>
<g id="XMLID_237_">
	<path id="XMLID_242_" class="st1" d="M331.9,33.6l108.9,84.9L72.4,359.3l4.1-26.9L331.9,33.6 M329.1,6.2l-12.4,14.5L61.4,319.5
		l-3.7,4.3l-0.9,5.6l-4.1,26.9L46,400.4L83.3,376l368.3-240.8l23.3-15.2L453,102.8L344.1,17.9L329.1,6.2L329.1,6.2z"/>
</g>
<g id="XMLID_57_">
	<path id="XMLID_459_" class="st2" d="M142.4,498c-55.1,0-100-44.9-100-100V166.6h483.2v231.3c0,55.2-44.9,100-100,100H142.4z"/>
</g>
<g id="XMLID_28_">
	<path id="XMLID_455_" class="st1" d="M515.6,186.5v221.4c0,49.7-40.3,90.1-90.1,90.1H142.4c-49.7,0-90.1-40.3-90.1-90.1V186.5
		H515.6 M535.5,166.6h-19.9H52.3H32.4v19.9v221.4c0,60.6,49.3,110,110,110h283.2c60.6,0,110-49.3,110-110V186.5V166.6L535.5,166.6z"
		/>
</g>
<g id="XMLID_14_" class="st3">
	<g id="XMLID_21_">
		<path id="XMLID_227_" class="st1" d="M494,217.5c-1.8,0-3.3-1.5-3.3-3.3v-3.3h-3.3c-1.8,0-3.3-1.5-3.3-3.3s1.5-3.3,3.3-3.3h6.6
			c1.8,0,3.3,1.5,3.3,3.3v6.6C497.3,216,495.8,217.5,494,217.5z"/>
	</g>
	<g id="XMLID_20_">
		<path id="XMLID_137_" class="st1" d="M474.3,210.9h-13.1c-1.8,0-3.3-1.5-3.3-3.3s1.5-3.3,3.3-3.3h13.1c1.8,0,3.3,1.5,3.3,3.3
			S476.1,210.9,474.3,210.9z M448.1,210.9H435c-1.8,0-3.3-1.5-3.3-3.3s1.5-3.3,3.3-3.3h13.1c1.8,0,3.3,1.5,3.3,3.3
			S449.9,210.9,448.1,210.9z M421.9,210.9h-13.1c-1.8,0-3.3-1.5-3.3-3.3s1.5-3.3,3.3-3.3h13.1c1.8,0,3.3,1.5,3.3,3.3
			S423.8,210.9,421.9,210.9z M395.7,210.9h-13.1c-1.8,0-3.3-1.5-3.3-3.3s1.5-3.3,3.3-3.3h13.1c1.8,0,3.3,1.5,3.3,3.3
			S397.6,210.9,395.7,210.9z M369.6,210.9h-13.1c-1.8,0-3.3-1.5-3.3-3.3s1.5-3.3,3.3-3.3h13.1c1.8,0,3.3,1.5,3.3,3.3
			S371.4,210.9,369.6,210.9z M343.4,210.9h-13.1c-1.8,0-3.3-1.5-3.3-3.3s1.5-3.3,3.3-3.3h13.1c1.8,0,3.3,1.5,3.3,3.3
			S345.2,210.9,343.4,210.9z M317.2,210.9h-13.1c-1.8,0-3.3-1.5-3.3-3.3s1.5-3.3,3.3-3.3h13.1c1.8,0,3.3,1.5,3.3,3.3
			S319,210.9,317.2,210.9z M291,210.9h-13.1c-1.8,0-3.3-1.5-3.3-3.3s1.5-3.3,3.3-3.3H291c1.8,0,3.3,1.5,3.3,3.3
			S292.9,210.9,291,210.9z M264.8,210.9h-13.1c-1.8,0-3.3-1.5-3.3-3.3s1.5-3.3,3.3-3.3h13.1c1.8,0,3.3,1.5,3.3,3.3
			S266.7,210.9,264.8,210.9z M238.7,210.9h-13.1c-1.8,0-3.3-1.5-3.3-3.3s1.5-3.3,3.3-3.3h13.1c1.8,0,3.3,1.5,3.3,3.3
			S240.5,210.9,238.7,210.9z M212.5,210.9h-13.1c-1.8,0-3.3-1.5-3.3-3.3s1.5-3.3,3.3-3.3h13.1c1.8,0,3.3,1.5,3.3,3.3
			S214.3,210.9,212.5,210.9z M186.3,210.9h-13.1c-1.8,0-3.3-1.5-3.3-3.3s1.5-3.3,3.3-3.3h13.1c1.8,0,3.3,1.5,3.3,3.3
			S188.1,210.9,186.3,210.9z M160.1,210.9H147c-1.8,0-3.3-1.5-3.3-3.3s1.5-3.3,3.3-3.3h13.1c1.8,0,3.3,1.5,3.3,3.3
			S161.9,210.9,160.1,210.9z M133.9,210.9h-13.1c-1.8,0-3.3-1.5-3.3-3.3s1.5-3.3,3.3-3.3h13.1c1.8,0,3.3,1.5,3.3,3.3
			S135.8,210.9,133.9,210.9z M107.7,210.9H94.7c-1.8,0-3.3-1.5-3.3-3.3s1.5-3.3,3.3-3.3h13.1c1.8,0,3.3,1.5,3.3,3.3
			S109.6,210.9,107.7,210.9z"/>
	</g>
	<g id="XMLID_19_">
		<path id="XMLID_136_" class="st1" d="M74.9,217.5c-1.8,0-3.3-1.5-3.3-3.3v-6.6c0-1.8,1.5-3.3,3.3-3.3h6.6c1.8,0,3.3,1.5,3.3,3.3
			s-1.5,3.3-3.3,3.3h-3.3v3.3C78.3,216,76.8,217.5,74.9,217.5z"/>
	</g>
	<g id="XMLID_18_">
		<path id="XMLID_79_" class="st1" d="M412.5,481.1h-4.8c-1.8,0-3.3-1.5-3.3-3.3c0-1.8,1.5-3.3,3.3-3.3h4.8c2.5,0,5.1-0.2,7.8-0.5
			c1.8-0.2,3.5,1,3.7,2.8c0.2,1.8-1,3.5-2.8,3.7C418.3,480.9,415.4,481.1,412.5,481.1z M394.6,481.1h-13.1c-1.8,0-3.3-1.5-3.3-3.3
			c0-1.8,1.5-3.3,3.3-3.3h13.1c1.8,0,3.3,1.5,3.3,3.3C398,479.6,396.5,481.1,394.6,481.1z M368.5,481.1h-13.1
			c-1.8,0-3.3-1.5-3.3-3.3c0-1.8,1.5-3.3,3.3-3.3h13.1c1.8,0,3.3,1.5,3.3,3.3C371.8,479.6,370.3,481.1,368.5,481.1z M342.4,481.1
			h-13.1c-1.8,0-3.3-1.5-3.3-3.3c0-1.8,1.5-3.3,3.3-3.3h13.1c1.8,0,3.3,1.5,3.3,3.3C345.7,479.6,344.2,481.1,342.4,481.1z
			 M316.2,481.1h-13.1c-1.8,0-3.3-1.5-3.3-3.3c0-1.8,1.5-3.3,3.3-3.3h13.1c1.8,0,3.3,1.5,3.3,3.3C319.5,479.6,318,481.1,316.2,481.1
			z M290.1,481.1H277c-1.8,0-3.3-1.5-3.3-3.3c0-1.8,1.5-3.3,3.3-3.3h13.1c1.8,0,3.3,1.5,3.3,3.3
			C293.4,479.6,291.9,481.1,290.1,481.1z M263.9,481.1h-13.1c-1.8,0-3.3-1.5-3.3-3.3c0-1.8,1.5-3.3,3.3-3.3h13.1
			c1.8,0,3.3,1.5,3.3,3.3C267.2,479.6,265.7,481.1,263.9,481.1z M237.8,481.1h-13.1c-1.8,0-3.3-1.5-3.3-3.3c0-1.8,1.5-3.3,3.3-3.3
			h13.1c1.8,0,3.3,1.5,3.3,3.3C241.1,479.6,239.6,481.1,237.8,481.1z M211.6,481.1h-13.1c-1.8,0-3.3-1.5-3.3-3.3
			c0-1.8,1.5-3.3,3.3-3.3h13.1c1.8,0,3.3,1.5,3.3,3.3C214.9,479.6,213.4,481.1,211.6,481.1z M185.5,481.1h-13.1
			c-1.8,0-3.3-1.5-3.3-3.3c0-1.8,1.5-3.3,3.3-3.3h13.1c1.8,0,3.3,1.5,3.3,3.3C188.8,479.6,187.3,481.1,185.5,481.1z M159.3,481.1
			h-2.9c-3.5,0-7.1-0.2-10.5-0.6c-1.8-0.2-3.1-1.9-2.9-3.7s1.9-3.1,3.7-2.9c3.2,0.4,6.5,0.6,9.8,0.6h2.9c1.8,0,3.3,1.5,3.3,3.3
			C162.6,479.6,161.1,481.1,159.3,481.1z M133.5,478c-0.3,0-0.6,0-0.9-0.1c-4.4-1.2-8.6-2.8-12.7-4.7c-1.7-0.8-2.4-2.7-1.6-4.4
			c0.8-1.7,2.7-2.4,4.4-1.6c3.8,1.7,7.7,3.2,11.8,4.3c1.8,0.5,2.8,2.3,2.3,4.1C136.2,477,134.9,478,133.5,478z M433.5,477.6
			c-1.4,0-2.7-0.9-3.2-2.3c-0.6-1.7,0.4-3.6,2.1-4.2c3.9-1.3,7.8-2.8,11.6-4.7c1.6-0.8,3.6-0.1,4.4,1.5c0.8,1.6,0.1,3.6-1.5,4.4
			c-4.1,2-8.3,3.8-12.6,5.1C434.2,477.6,433.8,477.6,433.5,477.6z M109.8,467.1c-0.6,0-1.3-0.2-1.8-0.6c-3.8-2.5-7.3-5.4-10.6-8.4
			c-1.3-1.3-1.4-3.3-0.2-4.7c1.2-1.3,3.3-1.4,4.7-0.2c3,2.8,6.3,5.5,9.8,7.8c1.5,1,1.9,3.1,0.9,4.6
			C111.9,466.6,110.9,467.1,109.8,467.1z M456.9,466.1c-1.1,0-2.1-0.5-2.7-1.5c-1-1.5-0.6-3.6,0.9-4.6c3.5-2.4,6.8-5,9.9-7.8
			c1.4-1.2,3.5-1.1,4.7,0.2c1.2,1.4,1.1,3.5-0.2,4.7c-3.3,3-6.9,5.8-10.6,8.3C458.2,465.9,457.5,466.1,456.9,466.1z M90.8,449.3
			c-1,0-2-0.4-2.6-1.3c-2.8-3.6-5.3-7.5-7.4-11.4c-0.9-1.6-0.2-3.6,1.4-4.5c1.6-0.9,3.6-0.2,4.5,1.4c1.9,3.7,4.2,7.2,6.8,10.5
			c1.1,1.5,0.8,3.5-0.6,4.7C92.2,449.1,91.5,449.3,90.8,449.3z M476.2,448.6c-0.8,0-1.5-0.3-2.1-0.8c-1.4-1.2-1.6-3.3-0.4-4.7
			c2.7-3.3,5.2-6.7,7.3-10.2c0.9-1.6,3-2.1,4.6-1.1c1.6,0.9,2.1,3,1.1,4.6c-2.3,3.8-4.9,7.5-7.9,11
			C478.1,448.2,477.2,448.6,476.2,448.6z M78.6,426.3c-1.4,0-2.7-0.9-3.2-2.3c-1.4-4.3-2.4-8.8-3.1-13.3c-0.3-1.8,1-3.5,2.8-3.7
			c1.8-0.2,3.5,1,3.7,2.8c0.6,4.1,1.5,8.2,2.8,12.2c0.6,1.7-0.4,3.6-2.1,4.2C79.3,426.3,79,426.3,78.6,426.3z M489.6,426.3
			c-0.4,0-0.8-0.1-1.2-0.2c-1.7-0.7-2.6-2.6-1.9-4.3c1.5-3.9,2.6-7.9,3.3-11.9c0.3-1.8,2-3,3.8-2.7c1.8,0.3,3,2,2.7,3.8
			c-0.8,4.4-2,8.9-3.7,13.2C492.2,425.5,490.9,426.3,489.6,426.3z M494,400.7c-1.8,0-3.3-1.5-3.3-3.3v-13.1c0-1.8,1.5-3.3,3.3-3.3
			s3.3,1.5,3.3,3.3v13.1C497.3,399.2,495.8,400.7,494,400.7z M74.9,400.6c-1.8,0-3.3-1.5-3.3-3.3v-13.1c0-1.8,1.5-3.3,3.3-3.3
			c1.8,0,3.3,1.5,3.3,3.3v13.1C78.3,399.1,76.8,400.6,74.9,400.6z M494,374.6c-1.8,0-3.3-1.5-3.3-3.3v-13.1c0-1.8,1.5-3.3,3.3-3.3
			s3.3,1.5,3.3,3.3v13.1C497.3,373.1,495.8,374.6,494,374.6z M74.9,374.4c-1.8,0-3.3-1.5-3.3-3.3V358c0-1.8,1.5-3.3,3.3-3.3
			c1.8,0,3.3,1.5,3.3,3.3v13.1C78.3,372.9,76.8,374.4,74.9,374.4z M494,348.4c-1.8,0-3.3-1.5-3.3-3.3V332c0-1.8,1.5-3.3,3.3-3.3
			s3.3,1.5,3.3,3.3v13.1C497.3,346.9,495.8,348.4,494,348.4z M74.9,348.3c-1.8,0-3.3-1.5-3.3-3.3v-13.1c0-1.8,1.5-3.3,3.3-3.3
			c1.8,0,3.3,1.5,3.3,3.3V345C78.3,346.8,76.8,348.3,74.9,348.3z M494,322.3c-1.8,0-3.3-1.5-3.3-3.3v-13.1c0-1.8,1.5-3.3,3.3-3.3
			s3.3,1.5,3.3,3.3V319C497.3,320.8,495.8,322.3,494,322.3z M74.9,322.1c-1.8,0-3.3-1.5-3.3-3.3v-13.1c0-1.8,1.5-3.3,3.3-3.3
			c1.8,0,3.3,1.5,3.3,3.3v13.1C78.3,320.6,76.8,322.1,74.9,322.1z M494,296.1c-1.8,0-3.3-1.5-3.3-3.3v-13.1c0-1.8,1.5-3.3,3.3-3.3
			s3.3,1.5,3.3,3.3v13.1C497.3,294.6,495.8,296.1,494,296.1z M74.9,296c-1.8,0-3.3-1.5-3.3-3.3v-13.1c0-1.8,1.5-3.3,3.3-3.3
			c1.8,0,3.3,1.5,3.3,3.3v13.1C78.3,294.5,76.8,296,74.9,296z M494,270c-1.8,0-3.3-1.5-3.3-3.3v-13.1c0-1.8,1.5-3.3,3.3-3.3
			s3.3,1.5,3.3,3.3v13.1C497.3,268.5,495.8,270,494,270z M74.9,269.8c-1.8,0-3.3-1.5-3.3-3.3v-13.1c0-1.8,1.5-3.3,3.3-3.3
			c1.8,0,3.3,1.5,3.3,3.3v13.1C78.3,268.3,76.8,269.8,74.9,269.8z M494,243.8c-1.8,0-3.3-1.5-3.3-3.3v-13.1c0-1.8,1.5-3.3,3.3-3.3
			s3.3,1.5,3.3,3.3v13.1C497.3,242.3,495.8,243.8,494,243.8z M74.9,243.7c-1.8,0-3.3-1.5-3.3-3.3v-13.1c0-1.8,1.5-3.3,3.3-3.3
			c1.8,0,3.3,1.5,3.3,3.3v13.1C78.3,242.2,76.8,243.7,74.9,243.7z"/>
	</g>
</g>
<g id="XMLID_94_" class="st4">
	<path id="XMLID_69_" class="st5" d="M518.7,186.5h-467v221.4c0,49.7,40.6,90.1,90.8,90.1h285.4c50.1,0,90.8-40.3,90.8-90.1V186.5z
		 M496.9,402.5c-2.3,43.6-42.9,78.1-80.2,78.1H151.1c-36.4,0-77.9-30.9-77.9-77.2V200.6l423.7-0.9V402.5z"/>
</g>
<linearGradient id="XMLID_4_" gradientUnits="userSpaceOnUse" x1="41.5537" y1="161.1938" x2="496.8223" y2="161.1938">
	<stop  offset="0" style="stop-color:#27C42F"/>
	<stop  offset="0.5884" style="stop-color:#21CB2A"/>
	<stop  offset="1" style="stop-color:#1AD323"/>
</linearGradient>
<polygon id="XMLID_232_" class="st6" points="41.6,158.9 484.5,110.2 496.8,184.7 42.7,212.2 "/>
<g id="XMLID_75_">
	<path id="XMLID_76_" class="st1" d="M476.2,121.1l9,54.3L52.4,201.7l-0.7-33.9L476.2,121.1 M492.8,99.2l-18.7,2.1L49.5,148l-18.1,2
		l0.4,18.2l0.7,33.9l0.4,20.7l20.7-1.3l432.8-26.3l22-1.3l-3.6-21.8l-9-54.3L492.8,99.2L492.8,99.2z"/>
</g>
<linearGradient id="XMLID_5_" gradientUnits="userSpaceOnUse" x1="42.3746" y1="225.8374" x2="525.5654" y2="225.8374">
	<stop  offset="0" style="stop-color:#F9DC4B"/>
	<stop  offset="7.846582e-002" style="stop-color:#F8DB44"/>
	<stop  offset="0.456" style="stop-color:#F6D725"/>
	<stop  offset="0.7765" style="stop-color:#F5D412"/>
	<stop  offset="1" style="stop-color:#F4D30B"/>
</linearGradient>
<rect id="XMLID_71_" x="42.4" y="177" class="st7" width="483.2" height="97.6"/>
<path id="XMLID_48_" class="st1" d="M515.6,187v77.7H52.3V187H515.6 M535.5,167.1h-19.9H52.3H32.4V187v77.7v19.9h19.9h463.3h19.9
	v-19.9V187V167.1L535.5,167.1z"/>
<linearGradient id="XMLID_6_" gradientUnits="userSpaceOnUse" x1="42.3746" y1="269.076" x2="525.5654" y2="269.076">
	<stop  offset="0" style="stop-color:#F42F2F"/>
	<stop  offset="7.828671e-002" style="stop-color:#F12C2C"/>
	<stop  offset="0.621" style="stop-color:#E11919"/>
	<stop  offset="1" style="stop-color:#DB1212"/>
</linearGradient>
<rect id="XMLID_47_" x="42.4" y="237.9" class="st8" width="483.2" height="62.3"/>
<path id="XMLID_40_" class="st1" d="M515.6,247.9v42.4H52.3v-42.4H515.6 M535.5,228h-19.9H52.3H32.4v19.9v42.4v19.9h19.9h463.3h19.9
	v-19.9v-42.4V228L535.5,228z"/>
<rect id="XMLID_9_" x="44.9" y="243.8" class="st9" width="480.6" height="18.9"/>
<rect id="XMLID_11_" x="51.7" y="184.1" class="st9" width="480.6" height="18.9"/>
<polygon id="XMLID_12_" class="st9" points="477.2,110.4 50.2,158.9 63.4,180.8 486.2,136.6 "/>
<polygon id="XMLID_13_" class="st9" points="269.3,136.6 355,38.7 326.1,17.6 232.6,136.6 "/>
<path id="XMLID_1_" class="st2" d="M327.3,545.3h-87.9c-7.9,0-14.3-6.4-14.3-14.3V398.6c0-7.9,6.4-14.3,14.3-14.3h87.9
	c7.9,0,14.3,6.4,14.3,14.3V531C341.6,538.9,335.2,545.3,327.3,545.3z"/>
<path id="XMLID_17_" class="st1" d="M294.2,560.8h-21.7c-31.6,0-57.4-25.7-57.4-57.4v-71.7c0-31.6,25.7-57.4,57.4-57.4h21.7
	c31.6,0,57.4,25.7,57.4,57.4v71.7C351.5,535,325.8,560.8,294.2,560.8z M272.5,394.3c-20.7,0-37.5,16.8-37.5,37.5v71.7
	c0,20.7,16.8,37.5,37.5,37.5h21.7c20.7,0,37.5-16.8,37.5-37.5v-71.7c0-20.7-16.8-37.5-37.5-37.5H272.5z"/>
<g id="XMLID_29_" class="st3">
	<path id="XMLID_22_" class="st1" d="M288.7,527.4H278c-0.9,0-1.9,0-2.8-0.1c-1.8-0.2-3.2-1.8-3-3.6c0.2-1.8,1.8-3.2,3.6-3
		c0.7,0.1,1.5,0.1,2.2,0.1h10.8c1.8,0,3.3,1.5,3.3,3.3C292,526,290.5,527.4,288.7,527.4z M297.2,526.2c-1.4,0-2.7-0.9-3.2-2.3
		c-0.5-1.8,0.5-3.6,2.2-4.1c3.7-1.1,7.2-3.2,10-5.9c1.3-1.3,3.4-1.2,4.7,0.1c1.3,1.3,1.2,3.4-0.1,4.7c-3.6,3.4-8,5.9-12.7,7.4
		C297.8,526.1,297.5,526.2,297.2,526.2z M263,523.2c-0.6,0-1.2-0.2-1.7-0.5c-4.2-2.6-7.8-6.1-10.5-10.3c-1-1.5-0.5-3.6,1-4.6
		c1.5-1,3.6-0.5,4.6,1c2.1,3.3,5,6.1,8.3,8.2c1.6,1,2.1,3,1.1,4.6C265.2,522.7,264.1,523.2,263,523.2z M315.8,508.6
		c-0.4,0-0.8-0.1-1.1-0.2c-1.7-0.6-2.6-2.5-2-4.3c1-2.8,1.6-5.8,1.6-8.8v-3.1c0-1.8,1.5-3.3,3.3-3.3c1.8,0,3.3,1.5,3.3,3.3v3.1
		c0,3.8-0.7,7.6-2,11.1C318.4,507.8,317.1,508.6,315.8,508.6z M249.3,501.6c-1.7,0-3.1-1.3-3.3-3c-0.1-1.1-0.2-2.2-0.2-3.3V485
		c0-1.8,1.5-3.3,3.3-3.3s3.3,1.5,3.3,3.3v10.3c0,0.9,0,1.8,0.1,2.7c0.2,1.8-1.1,3.5-3,3.6C249.5,501.6,249.4,501.6,249.3,501.6z
		 M317.5,482.3c-1.8,0-3.3-1.5-3.3-3.3v-13.3c0-1.8,1.5-3.3,3.3-3.3c1.8,0,3.3,1.5,3.3,3.3V479C320.9,480.8,319.4,482.3,317.5,482.3
		z M249.1,475.1c-1.8,0-3.3-1.5-3.3-3.3v-13.3c0-1.8,1.5-3.3,3.3-3.3s3.3,1.5,3.3,3.3v13.3C252.4,473.6,251,475.1,249.1,475.1z
		 M317.5,455.8c-1.8,0-3.3-1.5-3.3-3.3l0-13.2c0-1.8,1.4-3.3,3.2-3.4c1.8-0.1,3.3,1.4,3.4,3.2l0,0.7v12.6
		C320.9,454.3,319.4,455.8,317.5,455.8z M249.1,448.6c-1.8,0-3.3-1.5-3.3-3.3v-5.4c0-2.9,0.4-5.8,1.2-8.6c0.5-1.8,2.3-2.8,4.1-2.3
		c1.8,0.5,2.8,2.3,2.3,4.1c-0.6,2.2-0.9,4.5-0.9,6.9v5.4C252.4,447.1,251,448.6,249.1,448.6z M314.3,429.8c-1.2,0-2.3-0.6-2.9-1.8
		c-1.8-3.5-4.5-6.5-7.6-8.8c-1.5-1.1-1.8-3.2-0.7-4.6c1.1-1.5,3.1-1.8,4.6-0.7c4,2.9,7.3,6.7,9.6,11.1c0.9,1.6,0.2,3.6-1.4,4.5
		C315.3,429.6,314.8,429.8,314.3,429.8z M256.5,423.9c-0.8,0-1.6-0.3-2.2-0.9c-1.4-1.2-1.5-3.3-0.2-4.7c3.3-3.7,7.5-6.6,12-8.4
		c1.7-0.7,3.6,0.2,4.3,1.9c0.7,1.7-0.2,3.6-1.9,4.3c-3.6,1.4-6.9,3.7-9.5,6.7C258.3,423.5,257.4,423.9,256.5,423.9z M293.5,414.7
		c-0.2,0-0.4,0-0.6,0c-1.4-0.2-2.8-0.4-4.3-0.4h-8.4c-1.8,0-3.3-1.5-3.3-3.3c0-1.8,1.5-3.3,3.3-3.3h8.4c1.8,0,3.6,0.2,5.4,0.4
		c1.8,0.3,3,2,2.7,3.8C296.5,413.6,295.1,414.7,293.5,414.7z"/>
</g>
<g id="XMLID_16_">
	<circle id="XMLID_356_" class="st1" cx="283.3" cy="468.2" r="23.9"/>
</g>
</svg>
